<svg width="21" height="21" xmlns="http://www.w3.org/2000/svg">

 <g>
  <title>background</title>
  <rect fill="none" id="canvas_background" height="402" width="582" y="-1" x="-1"/>
 </g>
 <g>
  <title>Layer 1</title>
  <path fill="#ffffff" id="svg_2" d="m1.5,10.5l9,-9l9,9"/>
  <path fill="#ffffff" id="svg_3" d="m3.5,8.5l0,8c0,0.55228 0.44772,1 1,1l3,0c0.55228,0 1,-0.44772 1,-1l0,-4c0,-0.55228 0.44772,-1 1,-1l2,0c0.55228,0 1,0.44772 1,1l0,4c0,0.55228 0.44772,1 1,1l3,0c0.55228,0 1,-0.44772 1,-1l0,-8"/>
 </g>
</svg>